<?xml version="1.0" encoding="UTF-8" standalone="no"?>
<!-- Created with Inkscape (http://www.inkscape.org/) -->

<svg
   width="500.00003"
   height="500.00006"
   viewBox="0 0 132.29167 132.29169"
   version="1.1"
   id="svg1"
   inkscape:version="1.4.4 (dcaf3e7d9e, 2026-05-05)"
   sodipodi:docname="Logo Mária - White.svg"
   inkscape:export-filename="Logo Mária - White.png"
   inkscape:export-xdpi="300"
   inkscape:export-ydpi="300"
   xmlns:inkscape="http://www.inkscape.org/namespaces/inkscape"
   xmlns:sodipodi="http://sodipodi.sourceforge.net/DTD/sodipodi-0.dtd"
   xmlns="http://www.w3.org/2000/svg"
   xmlns:svg="http://www.w3.org/2000/svg">
  <sodipodi:namedview
     id="namedview1"
     pagecolor="#ffffff"
     bordercolor="#000000"
     borderopacity="0.25"
     inkscape:showpageshadow="2"
     inkscape:pageopacity="0.0"
     inkscape:pagecheckerboard="0"
     inkscape:deskcolor="#d1d1d1"
     inkscape:document-units="mm"
     inkscape:zoom="1.48"
     inkscape:cx="293.91892"
     inkscape:cy="229.39189"
     inkscape:window-width="2560"
     inkscape:window-height="1371"
     inkscape:window-x="0"
     inkscape:window-y="0"
     inkscape:window-maximized="1"
     inkscape:current-layer="layer1"
     showgrid="false"
     showguides="true"
     inkscape:export-bgcolor="#e5e5e500">
    <sodipodi:guide
       position="66.146,66.145681"
       orientation="0,1"
       id="guide1"
       inkscape:locked="false"
       inkscape:label=""
       inkscape:color="rgb(0,134,229)" />
    <sodipodi:guide
       position="66.146,66.145681"
       orientation="-1,0"
       id="guide2"
       inkscape:locked="false"
       inkscape:label=""
       inkscape:color="rgb(0,134,229)" />
    <sodipodi:guide
       position="120.40608,53.421746"
       orientation="1,0"
       id="guide3"
       inkscape:locked="false" />
    <sodipodi:guide
       position="-2.0646182,38.527767"
       orientation="0,-1"
       id="guide5"
       inkscape:locked="false" />
    <inkscape:page
       x="0"
       y="0"
       width="132.29167"
       height="132.29169"
       id="page2"
       margin="0"
       bleed="0" />
  </sodipodi:namedview>
  <defs
     id="defs1" />
  <g
     inkscape:label="Camada 1"
     inkscape:groupmode="layer"
     id="layer1">
    <path
       style="fill:#484848;stroke:#e8ad4f;stroke-width:4.17131;stroke-linecap:round;stroke-dasharray:none;stroke-opacity:1"
       d="M 7.385601,104.0674 124.26607,17.272133"
       id="path4" />
    <path
       style="font-size:400px;line-height:542.361px;font-family:'Dr Sugiyama';-inkscape-font-specification:'Dr Sugiyama';letter-spacing:-2.6px;white-space:pre;fill:#484848"
       d="m 280.91719,282.34722 1.2,-88.4 q -0.4,-2.8 -3.2,-2.8 -2.4,0 -4.4,2.8 -19.6,48.8 -49.6,134.8 -29.6,85.6 -31.2,90 -1.2,4.4 -7.6,10.4 -6.4,6.4 -11.2,6.4 -4.8,0 -4.8,-7.6 -0.4,-2.8 -1.2,-26.4 -0.8,-24 -2.4,-48.8 -1.6,-24.8 -4.4,-51.2 -2.4,-26.8 -7.2,-43.6 -4.8,-17.2 -10.8,-17.2 -10.4,0 -58.800002,164 -6.400001,22.4 -6.8,23.2 -1.600001,5.2 -7.600001,8.8 -5.599999,4 -10.8,4 -4.399999,0 -4.399999,-6.4 2.799999,-82.4 2.799999,-136.4 0,-102 -3.199999,-137.2 l -1.200001,-13.2 q 0,-2.8 5.600001,-8 5.6,-5.6 10.399999,-5.6 4.8,0 4.8,8.8 v 2.8 l 0.8,33.6 v 16.4 q 0,152.4 -2,184.4 0,7.2 1.2,7.2 1.2,0 33.200003,-97.6 32.4,-98 36,-110 3.6,-12 9.2,-18 5.6,-6.4 12,-6.4 9.2,0 15.2,52.4 6,52.4 9.2,104.8 3.6,52.4 5.2,52.4 2,0 10.8,-22.8 8.8,-22.8 20,-55.2 11.6,-32.4 22.8,-64.8 27.6,-77.6 30.4,-76 -0.8,-0.4 2.4,-3.2 9.6,-8 15.6,-8.8 8.8,1.2 8.8,10.8 v 10.4 q 0,30 1.2,48 12,199.6 89.2,199.6 6.4,0 11.6,-3.6 5.2,-3.6 6.8,-3.6 2,0 4.4,2.4 2.4,2.4 2.4,5.2 0,10.4 -22,24.4 -21.6,14.4 -42.4,14.4 -76,0 -76,-159.6 z"
       id="text2"
       transform="matrix(0.31025116,0,0,0.31025116,-4.3788028,-30.96899)"
       aria-label="M" />
    <g
       id="text3"
       style="font-size:29.3333px;line-height:41.5023px;font-family:'Dr Sugiyama';-inkscape-font-specification:'Dr Sugiyama';text-align:end;letter-spacing:0px;white-space:pre;fill:#484848"
       transform="matrix(0.31025116,0,0,0.31025116,-43.319606,5.6955982)"
       aria-label="MARTINS DE CARVALHO">
      <path
         style="font-family:'Roboto Condensed';-inkscape-font-specification:'Roboto Condensed, '"
         d="m 266.00423,343.494 h 2.54948 l 5.45702,17.00129 5.4427,-17.00129 h 2.54948 l -7.0039,20.85415 h -2.0052 z m -0.83073,0 h 2.23437 l 0.38672,12.71874 v 8.13541 h -2.62109 z m 15.41144,0 h 2.23438 v 20.85415 h -2.6211 v -8.13541 z m 13.76431,1.84766 -5.70051,19.00649 h -2.69271 l 6.71744,-20.85415 h 1.6901 z m 4.61197,19.00649 -5.70051,-19.00649 -0.0287,-1.84766 h 1.70443 l 6.71744,20.85415 z m 0,-7.72005 v 2.26302 h -10.05467 v -2.26302 z m 5.55729,-13.1341 h 5.82942 q 2.03385,0 3.40885,0.71615 1.38932,0.71614 2.09114,2.11979 0.71615,1.38932 0.71615,3.42317 0,1.43229 -0.47266,2.62109 -0.47266,1.17448 -1.375,2.00521 -0.90234,0.8164 -2.1914,1.21744 l -0.71615,0.30079 h -5.19921 l -0.0286,-2.2487 h 3.73828 q 1.20312,0 2.00521,-0.51562 0.80208,-0.52995 1.20312,-1.41797 0.40104,-0.88802 0.40104,-1.96224 0,-1.20312 -0.35807,-2.10547 -0.35807,-0.90234 -1.14583,-1.38932 -0.77344,-0.5013 -2.07682,-0.5013 h -3.19401 v 18.59113 h -2.63541 z m 10.0117,20.85415 -4.15364,-9.45312 2.73568,-0.0143 4.23957,9.29556 v 0.17188 z M 325.63046,343.494 v 20.85415 H 323.0237 V 343.494 Z m 5.48568,0 v 2.26302 H 317.55235 V 343.494 Z m 5.82942,0 v 20.85415 h -2.63542 V 343.494 Z m 18.21872,0 v 20.85415 h -2.64974 l -8.35025,-16.08462 v 16.08462 h -2.63541 V 343.494 h 2.63541 l 8.39322,16.12759 V 343.494 Z m 13.66405,15.58332 q 0,-0.73047 -0.17187,-1.28906 -0.17188,-0.57292 -0.60156,-1.03125 -0.42969,-0.45833 -1.20313,-0.8737 -0.77343,-0.41536 -1.96223,-0.84505 -1.28907,-0.45833 -2.33464,-1.01692 -1.04557,-0.57292 -1.79036,-1.30339 -0.73047,-0.73047 -1.13151,-1.67578 -0.40104,-0.94531 -0.40104,-2.16276 0,-1.21744 0.41536,-2.24869 0.42969,-1.03125 1.20313,-1.79036 0.78776,-0.77344 1.89062,-1.20313 1.10286,-0.42968 2.46354,-0.42968 2.03385,0 3.42317,0.90234 1.40365,0.88802 2.11979,2.33463 0.71615,1.43229 0.71615,3.0651 h -2.63542 q 0,-1.17448 -0.38672,-2.07682 -0.37239,-0.91666 -1.17447,-1.43229 -0.78776,-0.52995 -2.0625,-0.52995 -1.14583,0 -1.89062,0.44401 -0.73047,0.44401 -1.08854,1.20313 -0.34375,0.75911 -0.34375,1.73307 0,0.65885 0.22916,1.20312 0.22917,0.52995 0.70182,0.98828 0.48698,0.45833 1.20313,0.84505 0.73047,0.38672 1.71875,0.74479 1.53255,0.50131 2.62109,1.11719 1.08854,0.61588 1.77604,1.38932 0.6875,0.75912 1.0026,1.73307 0.32943,0.95964 0.32943,2.17708 0,1.27474 -0.42969,2.30599 -0.41536,1.03125 -1.21745,1.76172 -0.80208,0.73046 -1.93359,1.13151 -1.13151,0.38671 -2.54947,0.38671 -1.23177,0 -2.42057,-0.40104 -1.17448,-0.40104 -2.13412,-1.20312 -0.95963,-0.80208 -1.53255,-1.97656 -0.57291,-1.1888 -0.57291,-2.75 h 2.63541 q 0,1.07422 0.3151,1.84766 0.31511,0.75911 0.8737,1.26041 0.55859,0.5013 1.27474,0.74479 0.73047,0.22917 1.5612,0.22917 1.14583,0 1.91926,-0.40104 0.78776,-0.40104 1.17448,-1.14583 0.40104,-0.74479 0.40104,-1.76172 z m 17.54555,5.27083 h -3.55208 l 0.0287,-2.2487 h 3.52343 q 1.8763,0 3.05078,-0.71614 1.17448,-0.73047 1.73307,-2.14844 0.55859,-1.43229 0.55859,-3.53776 v -3.5664 q 0,-1.66145 -0.3151,-2.86458 -0.3151,-1.20312 -0.94531,-1.97656 -0.63021,-0.77343 -1.58984,-1.14583 -0.95964,-0.38672 -2.2487,-0.38672 h -3.86718 V 343.494 h 3.86718 q 1.76172,0 3.17969,0.5586 1.41796,0.54427 2.43489,1.64713 1.01693,1.08854 1.54687,2.70703 0.54427,1.61849 0.54427,3.7526 v 3.53775 q 0,2.13412 -0.54427,3.7526 -0.52994,1.61849 -1.56119,2.70703 -1.03125,1.08854 -2.50651,1.64714 -1.46094,0.54427 -3.33724,0.54427 z M 384.28274,343.494 v 20.85415 h -2.63541 V 343.494 Z m 25.32289,18.60545 v 2.2487 h -9.05207 v -2.2487 z M 401.02622,343.494 v 20.85415 H 398.3908 V 343.494 Z m 7.36197,8.96614 v 2.24869 h -7.83463 v -2.24869 z m 1.07421,-8.96614 v 2.26302 h -8.90884 V 343.494 Z"
         id="path1" />
      <path
         style="font-family:'Roboto Condensed';-inkscape-font-specification:'Roboto Condensed, '"
         d="m 430.14467,357.71664 h 2.63541 q -0.10026,2.14844 -0.8737,3.70963 -0.75911,1.54688 -2.22005,2.37761 -1.44661,0.83072 -3.62369,0.83072 -1.5612,0 -2.82161,-0.61588 -1.26042,-0.61588 -2.16276,-1.76172 -0.88802,-1.16015 -1.36067,-2.77864 -0.47266,-1.61849 -0.47266,-3.63802 v -3.85286 q 0,-2.0052 0.47266,-3.62369 0.48697,-1.61849 1.38932,-2.76432 0.91666,-1.16015 2.22005,-1.77604 1.3177,-0.61588 2.97916,-0.61588 2.03385,0 3.4375,0.8164 1.41796,0.80208 2.17708,2.36328 0.77343,1.54687 0.85937,3.79557 h -2.63541 q -0.10026,-1.64714 -0.51563,-2.67838 -0.41536,-1.04558 -1.23177,-1.53255 -0.80208,-0.50131 -2.09114,-0.50131 -1.14583,0 -1.99088,0.45834 -0.83073,0.45833 -1.375,1.3177 -0.52995,0.84505 -0.80208,2.04818 -0.25782,1.1888 -0.25782,2.66406 v 3.8815 q 0,1.375 0.21485,2.5638 0.22916,1.1888 0.71614,2.09115 0.5013,0.88802 1.30339,1.38932 0.80208,0.5013 1.94791,0.5013 1.44661,0 2.29166,-0.47266 0.84506,-0.47265 1.2461,-1.5039 0.41536,-1.03125 0.54427,-2.69271 z m 12.9479,-12.37498 -5.70051,19.00649 h -2.69271 l 6.71744,-20.85415 h 1.69011 z m 4.61198,19.00649 -5.70052,-19.00649 -0.0286,-1.84766 h 1.70442 l 6.71744,20.85415 z m 0,-7.72005 v 2.26302 h -10.05468 v -2.26302 z m 5.55728,-13.1341 h 5.82942 q 2.03385,0 3.40885,0.71615 1.38932,0.71614 2.09114,2.11979 0.71615,1.38932 0.71615,3.42317 0,1.43229 -0.47266,2.62109 -0.47265,1.17448 -1.37499,2.00521 -0.90235,0.8164 -2.19141,1.21744 l -0.71614,0.30079 h -5.19922 l -0.0286,-2.2487 h 3.73827 q 1.20313,0 2.00521,-0.51562 0.80208,-0.52995 1.20312,-1.41797 0.40105,-0.88802 0.40105,-1.96224 0,-1.20312 -0.35808,-2.10547 -0.35807,-0.90234 -1.14583,-1.38932 -0.77344,-0.5013 -2.07682,-0.5013 h -3.19401 v 18.59113 h -2.63541 z m 10.01171,20.85415 -4.15364,-9.45312 2.73567,-0.0143 4.23958,9.29556 v 0.17188 z m 10.99999,-3.16536 5.01301,-17.68879 h 2.86458 l -6.47395,20.85415 h -2.01953 z m -4.49739,-17.68879 4.97004,17.68879 0.65886,3.16536 h -2.01953 L 466.91156,343.494 Z m 20.89711,1.84766 -5.70052,19.00649 h -2.6927 l 6.71744,-20.85415 h 1.6901 z m 4.61197,19.00649 -5.70052,-19.00649 -0.0286,-1.84766 h 1.70442 l 6.71744,20.85415 z m 0,-7.72005 v 2.26302 h -10.05468 v -2.26302 z m 16.35675,5.47135 v 2.2487 h -8.65103 v -2.2487 z M 503.46359,343.494 v 20.85415 h -2.63541 V 343.494 Z m 22.63018,8.96614 v 2.24869 h -9.03775 v -2.24869 z m -8.67968,-8.96614 v 20.85415 h -2.63541 V 343.494 Z m 11.01432,0 v 20.85415 h -2.63542 V 343.494 Z m 18.10414,8.62239 v 3.62369 q 0,2.20573 -0.48698,3.88151 -0.47266,1.66146 -1.38932,2.77864 -0.91667,1.11719 -2.20573,1.67578 -1.28906,0.55859 -2.90755,0.55859 -1.56119,0 -2.85026,-0.55859 -1.28906,-0.55859 -2.22005,-1.67578 -0.93098,-1.11718 -1.44661,-2.77864 -0.5013,-1.67578 -0.5013,-3.88151 v -3.62369 q 0,-2.20573 0.5013,-3.86718 0.5013,-1.67578 1.43229,-2.79297 0.93099,-1.11719 2.22005,-1.67578 1.28906,-0.57291 2.85026,-0.57291 1.61849,0 2.90755,0.57291 1.30338,0.55859 2.20572,1.67578 0.91667,1.11719 1.40365,2.79297 0.48698,1.66145 0.48698,3.86718 z m -2.60677,3.62369 v -3.65234 q 0,-1.71874 -0.28646,-2.95051 -0.28646,-1.2461 -0.84505,-2.03386 -0.55859,-0.78775 -1.375,-1.16015 -0.8164,-0.38672 -1.89062,-0.38672 -1.01693,0 -1.83333,0.38672 -0.80209,0.3724 -1.375,1.16015 -0.57292,0.78776 -0.88802,2.03386 -0.30078,1.23177 -0.30078,2.95051 v 3.65234 q 0,1.73307 0.30078,2.97917 0.3151,1.23177 0.88802,2.03385 0.58724,0.78776 1.40364,1.17448 0.81641,0.37239 1.81901,0.37239 1.07422,0 1.89062,-0.37239 0.83073,-0.38672 1.375,-1.17448 0.5586,-0.80208 0.83073,-2.03385 0.28646,-1.2461 0.28646,-2.97917 z"
         id="path2" />
    </g>
  </g>
</svg>
