<svg xmlns="http://www.w3.org/2000/svg" viewBox="20 30 75 80" width="64" height="64" role="img" aria-label="Martins de Carvalho">
  <path style="fill:none;stroke:#e8ad4f;stroke-width:4.17131;stroke-linecap:round" d="M 7.385601,104.0674 124.26607,17.272133"/>
  <path
    style="fill:#484848"
    d="m 280.91719,282.34722 1.2,-88.4 q -0.4,-2.8 -3.2,-2.8 -2.4,0 -4.4,2.8 -19.6,48.8 -49.6,134.8 -29.6,85.6 -31.2,90 -1.2,4.4 -7.6,10.4 -6.4,6.4 -11.2,6.4 -4.8,0 -4.8,-7.6 -0.4,-2.8 -1.2,-26.4 -0.8,-24 -2.4,-48.8 -1.6,-24.8 -4.4,-51.2 -2.4,-26.8 -7.2,-43.6 -4.8,-17.2 -10.8,-17.2 -10.4,0 -58.800002,164 -6.400001,22.4 -6.8,23.2 -1.600001,5.2 -7.600001,8.8 -5.599999,4 -10.8,4 -4.399999,0 -4.399999,-6.4 2.799999,-82.4 2.799999,-136.4 0,-102 -3.199999,-137.2 l -1.200001,-13.2 q 0,-2.8 5.600001,-8 5.6,-5.6 10.399999,-5.6 4.8,0 4.8,8.8 v 2.8 l 0.8,33.6 v 16.4 q 0,152.4 -2,184.4 0,7.2 1.2,7.2 1.2,0 33.200003,-97.6 32.4,-98 36,-110 3.6,-12 9.2,-18 5.6,-6.4 12,-6.4 9.2,0 15.2,52.4 6,52.4 9.2,104.8 3.6,52.4 5.2,52.4 2,0 10.8,-22.8 8.8,-22.8 20,-55.2 11.6,-32.4 22.8,-64.8 27.6,-77.6 30.4,-76 -0.8,-0.4 2.4,-3.2 9.6,-8 15.6,-8.8 8.8,1.2 8.8,10.8 v 10.4 q 0,30 1.2,48 12,199.6 89.2,199.6 6.4,0 11.6,-3.6 5.2,-3.6 6.8,-3.6 2,0 4.4,2.4 2.4,2.4 2.4,5.2 0,10.4 -22,24.4 -21.6,14.4 -42.4,14.4 -76,0 -76,-159.6 z"
    transform="matrix(0.31025116,0,0,0.31025116,-4.3788028,-30.96899)"
    aria-label="M"/>
</svg>